# Rhino

v 7.308382511138916 -1.710832118988037 0
v -5.580639839172363 8.563032150268555 0
v -18.46966171264648 18.83689689636231 0
v 7.308382511138916 -1.710832118988037 0
v -5.580639839172363 -11.98469638824463 0
v -18.46966171264648 -22.25856018066406 0
vn 0 0 -1
vn 0 0 -1
vn 0 0 -1
vn 0 0 -1
vn 0 0 -1
vn 0 0 -1
f 5//5 2//2 1//1
f 6//6 3//3 2//2 5//5
v 7.308382511138916 -1.710832118988037 0
v 7.308382511138916 -1.710832118988037 20.14655494689941
v -18.46966171264648 -22.25856018066406 0
v -18.46966171264648 -22.25856018066406 20.14655494689941
vn -0.62331223487854 0.7819730639457703 0
vn -0.62331223487854 0.7819730639457703 0
vn -0.62331223487854 0.7819730639457703 0
vn -0.62331223487854 0.7819730639457703 0
f 10//10 8//8 7//7 9//9
v -18.46966171264648 18.83689689636231 0
v -18.46966171264648 18.83689689636231 20.14655494689941
v 7.308382511138916 -1.710832118988037 0
v 7.308382511138916 -1.710832118988037 20.14655494689941
vn -0.62331223487854 -0.7819730639457703 0
vn -0.62331223487854 -0.7819730639457703 0
vn -0.62331223487854 -0.7819730639457703 0
vn -0.62331223487854 -0.7819730639457703 0
f 14//14 12//12 11//11 13//13
v -18.46966171264648 18.83689689636231 0
v -18.46966171264648 18.83689689636231 20.14655494689941
v -18.46966171264648 -22.25856018066406 0
v -18.46966171264648 -22.25856018066406 20.14655494689941
vn -1 0 0
vn -1 0 0
vn -1 0 0
vn -1 0 0
f 18//18 16//16 15//15 17//17
v 7.308382511138916 -1.710832118988037 20.14655494689941
v -5.580639839172363 -11.98469638824463 20.14655494689941
v -18.46966171264648 -22.25856018066406 20.14655494689941
v 7.308382511138916 -1.710832118988037 20.14655494689941
v -5.580639839172363 8.563032150268555 20.14655494689941
v -18.46966171264648 18.83689689636231 20.14655494689941
vn 0 0 1
vn 0 0 1
vn 0 0 1
vn 0 0 1
vn 0 0 1
vn 0 0 1
f 23//23 20//20 19//19
f 24//24 21//21 20//20 23//23
v 33.08642578125 18.83689689636231 0
v 33.08642578125 18.83689689636231 20.14655494689941
v -18.46966171264648 18.83689689636231 0
v -18.46966171264648 18.83689689636231 20.14655494689941
vn 0 1 0
vn 0 1 0
vn 0 1 0
vn 0 1 0
f 28//28 26//26 25//25 27//27
v 33.08642578125 -22.25856018066406 0
v 33.08642578125 -22.25856018066406 20.14655494689941
v 33.08642578125 18.83689689636231 0
v 33.08642578125 18.83689689636231 20.14655494689941
vn 1 0 0
vn 1 0 0
vn 1 0 0
vn 1 0 0
f 32//32 30//30 29//29 31//31
v -18.46966171264648 -22.25856018066406 0
v -18.46966171264648 -22.25856018066406 20.14655494689941
v 33.08642578125 -22.25856018066406 0
v 33.08642578125 -22.25856018066406 20.14655494689941
vn 0 -1 0
vn 0 -1 0
vn 0 -1 0
vn 0 -1 0
f 36//36 34//34 33//33 35//35
v 33.08642578125 -22.25856018066406 20.14655494689941
v -18.46966171264648 -22.25856018066406 20.14655494689941
v 33.08642578125 18.83689689636231 20.14655494689941
v -18.46966171264648 18.83689689636231 20.14655494689941
vn 0 0 1
vn 0 0 1
vn 0 0 1
vn 0 0 1
f 40//40 38//38 37//37 39//39
v -18.46966171264648 -22.25856018066406 0
v -18.46966171264648 18.83689689636231 0
v 33.08642578125 -22.25856018066406 0
v 33.08642578125 18.83689689636231 0
vn 0 0 1
vn 0 0 1
vn 0 0 1
vn 0 0 1
f 44//44 42//42 41//41 43//43
