# Rhino

v 11.5664587020874 8.890129089355469 -11.67504501342773
v 20.19558525085449 -2.986844062805176 -11.67504501342773
v 34.15780258178711 1.549755811691284 -11.67504501342773
v 34.15780258178711 16.23050117492676 -11.67504501342773
v 20.19558525085449 20.7671012878418 -11.67504501342773
vn 0 0 1
vn 0 0 1
vn 0 0 1
vn 0 0 1
vn 0 0 1
f 1//1 2//2 3//3
f 1//1 4//4 5//5
f 3//3 4//4 1//1
v 24.6699390411377 -16.75749206542969 -11.67504501342773
v 34.15780258178711 1.549755811691284 -11.67504501342773
v 20.19558525085449 -2.986844062805176 -11.67504501342773
v 38.63215637207031 -12.22089195251465 -11.67504501342773
vn 0 0 1
vn 0 0 1
vn 0 0 1
vn 0 0 1
f 6//6 9//9 7//7 8//8
v 51.0409049987793 -8.189045906066895 -11.67504501342773
v 38.63215637207031 -12.22089195251465 -11.67504501342773
v 38.63215637207031 30.00115013122559 -11.67504501342773
v 34.15780258178711 16.23050117492676 -11.67504501342773
v 34.15780258178711 1.549755811691284 -11.67504501342773
vn 0 0 1
vn 4.288472390847482e-18 -1.319856085552573e-17 1
vn 0 0 1
vn 0 0 1
vn 0 0 1
f 14//14 11//11 10//10
f 14//14 10//10 13//13
f 12//12 13//13 10//10
v 20.19558525085449 20.7671012878418 -11.67504501342773
v 34.15780258178711 16.23050117492676 -11.67504501342773
v 38.63215637207031 30.00115013122559 -11.67504501342773
v 24.6699390411377 34.53775024414063 -11.67504501342773
vn 0 0 1
vn 0 0 1
vn 0 0 1
vn 0 0 1
f 17//17 15//15 16//16
f 15//15 17//17 18//18
v 24.6699390411377 34.53775024414063 -11.67504501342773
v 8.481571197509766 29.27783012390137 -11.67504501342773
v 20.19558525085449 20.7671012878418 -11.67504501342773
vn -4.288472390847482e-18 1.319856085552573e-17 1
vn 8.576944781694963e-18 -2.639712171105145e-17 1
vn 0 0 1
f 20//20 21//21 19//19
v 11.5664587020874 8.890129089355469 -11.67504501342773
v 20.19558525085449 20.7671012878418 -11.67504501342773
v 8.481571197509766 29.27783012390137 -11.67504501342773
v -0.1475543975830078 17.40085792541504 -11.67504501342773
vn 0 0 1
vn 0 0 1
vn 0 0 1
vn 0 0 1
f 24//24 22//22 23//23
f 22//22 24//24 25//25
v 12.26119232177734 -20.78933906555176 -11.67504501342773
v -0.1475543975830078 17.40085792541504 -11.67504501342773
v 11.5664587020874 8.890129089355469 -11.67504501342773
v 24.6699390411377 -16.75749206542969 -11.67504501342773
v 20.19558525085449 -2.986844062805176 -11.67504501342773
vn 0 0 1
vn 0 0 1
vn 0 0 1
vn 0 0 1
vn 0 0 1
f 30//30 26//26 29//29
f 26//26 28//28 27//27
f 30//30 28//28 26//26
v 12.26119232177734 -20.78933906555176 0
v -0.1475543975830078 17.40085792541504 0
v 11.5664587020874 8.890129089355469 0
v 24.6699390411377 -16.75749206542969 0
v 20.19558525085449 -2.986844062805176 0
vn 0 0 1
vn 0 0 1
vn 0 0 1
vn 0 0 1
vn 0 0 1
f 35//35 31//31 34//34
f 31//31 33//33 32//32
f 35//35 33//33 31//31
v 11.5664587020874 8.890129089355469 0
v 20.19558525085449 20.7671012878418 0
v 8.481571197509766 29.27783012390137 0
v -0.1475543975830078 17.40085792541504 0
vn 0 0 1
vn 0 0 1
vn 0 0 1
vn 0 0 1
f 38//38 36//36 37//37
f 36//36 38//38 39//39
v 24.6699390411377 34.53775024414063 0
v 8.481571197509766 29.27783012390137 0
v 20.19558525085449 20.7671012878418 0
vn 0 0 1
vn 0 0 1
vn 0 0 1
f 41//41 42//42 40//40
v 20.19558525085449 20.7671012878418 0
v 34.15780258178711 16.23050117492676 0
v 38.63215637207031 30.00115013122559 0
v 24.6699390411377 34.53775024414063 0
vn 0 0 1
vn 0 0 1
vn 0 0 1
vn 0 0 1
f 45//45 43//43 44//44
f 43//43 45//45 46//46
v 51.0409049987793 -8.189045906066895 0
v 38.63215637207031 -12.22089195251465 0
v 38.63215637207031 30.00115013122559 0
v 34.15780258178711 16.23050117492676 0
v 34.15780258178711 1.549755811691284 0
vn 0 0 1
vn 0 0 1
vn 0 0 1
vn 0 0 1
vn 0 0 1
f 51//51 48//48 47//47
f 51//51 47//47 50//50
f 49//49 50//50 47//47
v 24.6699390411377 -16.75749206542969 0
v 34.15780258178711 1.549755811691284 0
v 20.19558525085449 -2.986844062805176 0
v 38.63215637207031 -12.22089195251465 0
vn 0 0 1
vn 0 0 1
vn 0 0 1
vn 0 0 1
f 52//52 55//55 53//53 54//54
v 11.5664587020874 8.890129089355469 0
v 20.19558525085449 -2.986844062805176 0
v 34.15780258178711 1.549755811691284 0
v 34.15780258178711 16.23050117492676 0
v 20.19558525085449 20.7671012878418 0
vn 0 0 1
vn 0 0 1
vn 0 0 1
vn 0 0 1
vn 0 0 1
f 56//56 57//57 58//58
f 56//56 59//59 60//60
f 58//58 59//59 56//56
v 11.5664587020874 8.890129089355469 0
v 11.5664587020874 8.890129089355469 -11.67504501342773
v 20.19558525085449 20.7671012878418 0
v 20.19558525085449 20.7671012878418 -11.67504501342773
v 20.19558525085449 20.7671012878418 0
v 20.19558525085449 20.7671012878418 -11.67504501342773
v 34.15780258178711 16.23050117492676 0
v 34.15780258178711 16.23050117492676 -11.67504501342773
v 34.15780258178711 16.23050117492676 0
v 34.15780258178711 16.23050117492676 -11.67504501342773
v 34.15780258178711 1.549755811691284 0
v 34.15780258178711 1.549755811691284 -11.67504501342773
v 34.15780258178711 1.549755811691284 0
v 34.15780258178711 1.549755811691284 -11.67504501342773
v 20.19558525085449 -2.986844062805176 0
v 20.19558525085449 -2.986844062805176 -11.67504501342773
v 20.19558525085449 -2.986844062805176 0
v 20.19558525085449 -2.986844062805176 -11.67504501342773
v 11.5664587020874 8.890129089355469 0
v 11.5664587020874 8.890129089355469 -11.67504501342773
vn -0.8090170025825501 0.5877852439880371 0
vn -0.8090170025825501 0.5877852439880371 0
vn -0.8090170025825501 0.5877852439880371 0
vn -0.8090170025825501 0.5877852439880371 0
vn 0.3090170025825501 0.9510565400123596 0
vn 0.3090170025825501 0.9510565400123596 0
vn 0.3090170025825501 0.9510565400123596 0
vn 0.3090170025825501 0.9510565400123596 0
vn 1 0 0
vn 1 0 0
vn 1 0 0
vn 1 0 0
vn 0.3090170025825501 -0.9510565400123596 0
vn 0.3090170025825501 -0.9510565400123596 0
vn 0.3090170025825501 -0.9510565400123596 0
vn 0.3090170025825501 -0.9510565400123596 0
vn -0.8090170025825501 -0.5877852439880371 0
vn -0.8090170025825501 -0.5877852439880371 0
vn -0.8090170025825501 -0.5877852439880371 0
vn -0.8090170025825501 -0.5877852439880371 0
f 61//61 63//63 64//64 62//62
f 65//65 67//67 68//68 66//66
f 69//69 71//71 72//72 70//70
f 73//73 75//75 76//76 74//74
f 77//77 79//79 80//80 78//78
v 20.19558525085449 -2.986844062805176 0
v 20.19558525085449 -2.986844062805176 -11.67504501342773
v 24.6699390411377 -16.75749206542969 0
v 24.6699390411377 -16.75749206542969 -11.67504501342773
vn 0.9510565400123596 0.3090170025825501 0
vn 0.9510565400123596 0.3090170025825501 0
vn 0.9510565400123596 0.3090170025825501 0
vn 0.9510565400123596 0.3090170025825501 0
f 81//81 83//83 84//84 82//82
v 34.15780258178711 1.549755811691284 0
v 34.15780258178711 1.549755811691284 -11.67504501342773
v 38.63215637207031 -12.22089195251465 0
v 38.63215637207031 -12.22089195251465 -11.67504501342773
vn 0.9510565400123596 0.3090170025825501 0
vn 0.9510565400123596 0.3090170025825501 0
vn 0.9510565400123596 0.3090170025825501 0
vn 0.9510565400123596 0.3090170025825501 0
f 85//85 87//87 88//88 86//86
v 34.15780258178711 16.23050117492676 0
v 34.15780258178711 16.23050117492676 -11.67504501342773
v 38.63215637207031 30.00115013122559 0
v 38.63215637207031 30.00115013122559 -11.67504501342773
vn -0.9510565400123596 0.3090170025825501 0
vn -0.9510565400123596 0.3090170025825501 0
vn -0.9510565400123596 0.3090170025825501 0
vn -0.9510565400123596 0.3090170025825501 0
f 89//89 91//91 92//92 90//90
v 20.19558525085449 20.7671012878418 0
v 20.19558525085449 20.7671012878418 -11.67504501342773
v 24.6699390411377 34.53775024414063 0
v 24.6699390411377 34.53775024414063 -11.67504501342773
vn -0.9510565400123596 0.3090170025825501 0
vn -0.9510565400123596 0.3090170025825501 0
vn -0.9510565400123596 0.3090170025825501 0
vn -0.9510565400123596 0.3090170025825501 0
f 93//93 95//95 96//96 94//94
v 20.19558525085449 20.7671012878418 0
v 20.19558525085449 20.7671012878418 -11.67504501342773
v 8.481571197509766 29.27783012390137 0
v 8.481571197509766 29.27783012390137 -11.67504501342773
vn -0.5877852439880371 -0.8090170025825501 0
vn -0.5877852439880371 -0.8090170025825501 0
vn -0.5877852439880371 -0.8090170025825501 0
vn -0.5877852439880371 -0.8090170025825501 0
f 97//97 99//99 100//100 98//98
v 11.5664587020874 8.890129089355469 0
v 11.5664587020874 8.890129089355469 -11.67504501342773
v -0.1475543975830078 17.40085792541504 0
v -0.1475543975830078 17.40085792541504 -11.67504501342773
vn -0.5877852439880371 -0.8090170025825501 0
vn -0.5877852439880371 -0.8090170025825501 0
vn -0.5877852439880371 -0.8090170025825501 0
vn -0.5877852439880371 -0.8090170025825501 0
f 101//101 103//103 104//104 102//102
v -0.1475543975830078 17.40085792541504 0
v -0.1475543975830078 17.40085792541504 -11.67504501342773
v 12.26119232177734 -20.78933906555176 0
v 12.26119232177734 -20.78933906555176 -11.67504501342773
vn 0.9510565400123596 0.3090170025825501 0
vn 0.9510565400123596 0.3090170025825501 0
vn 0.9510565400123596 0.3090170025825501 0
vn 0.9510565400123596 0.3090170025825501 0
f 105//105 107//107 108//108 106//106
v 24.6699390411377 -16.75749206542969 0
v 24.6699390411377 -16.75749206542969 -11.67504501342773
v 12.26119232177734 -20.78933906555176 0
v 12.26119232177734 -20.78933906555176 -11.67504501342773
vn 0.3090170025825501 -0.9510565400123596 0
vn 0.3090170025825501 -0.9510565400123596 0
vn 0.3090170025825501 -0.9510565400123596 0
vn 0.3090170025825501 -0.9510565400123596 0
f 109//109 111//111 112//112 110//110
v 24.6699390411377 -16.75749206542969 0
v 24.6699390411377 -16.75749206542969 -11.67504501342773
v 38.63215637207031 -12.22089195251465 0
v 38.63215637207031 -12.22089195251465 -11.67504501342773
vn -0.3090170025825501 0.9510565400123596 0
vn -0.3090170025825501 0.9510565400123596 0
vn -0.3090170025825501 0.9510565400123596 0
vn -0.3090170025825501 0.9510565400123596 0
f 113//113 115//115 116//116 114//114
v -0.1475543975830078 17.40085792541504 0
v -0.1475543975830078 17.40085792541504 -11.67504501342773
v 8.481571197509766 29.27783012390137 0
v 8.481571197509766 29.27783012390137 -11.67504501342773
vn -0.8090170025825501 0.5877852439880371 0
vn -0.8090170025825501 0.5877852439880371 0
vn -0.8090170025825501 0.5877852439880371 0
vn -0.8090170025825501 0.5877852439880371 0
f 117//117 119//119 120//120 118//118
v 8.481571197509766 29.27783012390137 0
v 8.481571197509766 29.27783012390137 -11.67504501342773
v 24.6699390411377 34.53775024414063 0
v 24.6699390411377 34.53775024414063 -11.67504501342773
vn -0.3090170025825501 0.9510565400123596 0
vn -0.3090170025825501 0.9510565400123596 0
vn -0.3090170025825501 0.9510565400123596 0
vn -0.3090170025825501 0.9510565400123596 0
f 121//121 123//123 124//124 122//122
v 24.6699390411377 34.53775024414063 0
v 24.6699390411377 34.53775024414063 -11.67504501342773
v 38.63215637207031 30.00115013122559 0
v 38.63215637207031 30.00115013122559 -11.67504501342773
vn 0.3090170025825501 0.9510565400123596 0
vn 0.3090170025825501 0.9510565400123596 0
vn 0.3090170025825501 0.9510565400123596 0
vn 0.3090170025825501 0.9510565400123596 0
f 125//125 127//127 128//128 126//126
v 38.63215637207031 -12.22089195251465 0
v 38.63215637207031 -12.22089195251465 -11.67504501342773
v 51.0409049987793 -8.189045906066895 0
v 51.0409049987793 -8.189045906066895 -11.67504501342773
vn -0.3090170025825501 0.9510565400123596 0
vn -0.3090170025825501 0.9510565400123596 0
vn -0.3090170025825501 0.9510565400123596 0
vn -0.3090170025825501 0.9510565400123596 0
f 129//129 131//131 132//132 130//130
v 38.63215637207031 30.00115013122559 0
v 38.63215637207031 30.00115013122559 -11.67504501342773
v 51.0409049987793 -8.189045906066895 0
v 51.0409049987793 -8.189045906066895 -11.67504501342773
vn 0.9510565400123596 0.3090170025825501 0
vn 0.9510565400123596 0.3090170025825501 0
vn 0.9510565400123596 0.3090170025825501 0
vn 0.9510565400123596 0.3090170025825501 0
f 133//133 135//135 136//136 134//134
