# Rhino

o object_1
v 47.01677703857422 167.0889587402344 145.4276123046875
v -45.4307746887207 317.3716735839844 230.8130035400391
v -121.0455093383789 173.3463745117188 230.8130035400391
vn 0.4342617094516754 -0.2279917448759079 0.8714565634727478
vn 0.4342617094516754 -0.2279917448759079 0.8714565634727478
vn 0.4342617094516754 -0.2279917448759079 0.8714565634727478
f 3//3 1//1 2//2
o object_2
v 47.01677703857422 167.0889587402344 145.4276123046875
v -45.4307746887207 317.3716735839844 230.8130035400391
v 208.6486358642578 50.96427536010742 230.8130035400391
vn 0.6645018458366394 0.6337520480155945 -0.3959742486476898
vn 0.6645018458366394 0.6337520480155945 -0.3959742486476898
vn 0.6645018458366394 0.6337520480155945 -0.3959742486476898
f 4//4 5//5 6//6
o object_3
v 47.01677703857422 167.0889587402344 145.4276123046875
v 208.6486358642578 50.96427536010742 230.8130035400391
v -121.0455093383789 173.3463745117188 230.8130035400391
vn -0.2962599992752075 -0.7981166243553162 -0.5246330499649048
vn -0.2962599992752075 -0.7981166243553162 -0.5246330499649048
vn -0.2962599992752075 -0.7981166243553162 -0.5246330499649048
f 7//7 8//8 9//9
o object_4
v 47.01677703857422 167.0889587402344 145.4276123046875
v 14.05745029449463 180.5607757568359 230.8130035400391
v 208.6486358642578 50.96427536010742 230.8130035400391
vn 0.5524287819862366 0.8294804692268372 0.08236860483884811
vn 0.5524287819862366 0.8294804692268372 0.08236860483884811
vn 0.5524287819862366 0.8294804692268372 0.08236860483884811
f 10//10 11//11 12//12
o object_5
v 47.01677703857422 167.0889587402344 145.4276123046875
v 14.05745029449463 180.5607757568359 230.8130035400391
v -121.0455093383789 173.3463745117188 230.8130035400391
vn 0.05249693617224693 -0.9831011295318604 0.1753744781017304
vn 0.05249693617224693 -0.9831011295318604 0.1753744781017304
vn 0.05249693617224693 -0.9831011295318604 0.1753744781017304
f 14//14 15//15 13//13
o object_6
v 47.01677703857422 167.0889587402344 145.4276123046875
v 14.05745029449463 180.5607757568359 230.8130035400391
v -45.4307746887207 317.3716735839844 230.8130035400391
vn -0.8805146217346191 -0.3828660845756531 -0.2794772386550903
vn -0.8805146217346191 -0.3828660845756531 -0.2794772386550903
vn -0.8805146217346191 -0.3828660845756531 -0.2794772386550903
f 17//17 18//18 16//16
o object_7
v 208.6486358642578 50.96427536010742 230.8130035400391
v -121.0455093383789 173.3463745117188 230.8130035400391
v -45.4307746887207 317.3716735839844 230.8130035400391
vn 0 0 -1
vn 0 0 -1
vn 0 0 -1
f 20//20 21//21 19//19
o object_8
v 14.05745029449463 180.5607757568359 230.8130035400391
v 208.6486358642578 50.96427536010742 230.8130035400391
v -121.0455093383789 173.3463745117188 230.8130035400391
vn 0 0 -1
vn 0 0 -1
vn 0 0 -1
f 22//22 23//23 24//24
o object_9
v 14.05745029449463 180.5607757568359 230.8130035400391
v -45.4307746887207 317.3716735839844 230.8130035400391
v 208.6486358642578 50.96427536010742 230.8130035400391
vn 0 0 -1
vn 0 0 -1
vn 0 0 -1
f 25//25 26//26 27//27
o object_10
v 14.05745029449463 180.5607757568359 230.8130035400391
v -45.4307746887207 317.3716735839844 230.8130035400391
v -121.0455093383789 173.3463745117188 230.8130035400391
vn 0 0 1
vn 0 0 1
vn 0 0 1
f 28//28 29//29 30//30
